<svg width="96" height="96" viewBox="0 0 96 96" fill="none" xmlns="http://www.w3.org/2000/svg">
<path d="M45.1746 0.377197C47.0327 0.377197 48.8932 0.377197 50.7513 0.377197C50.9911 0.430752 51.2263 0.512247 51.4684 0.530875C58.9125 1.0571 65.8769 3.18531 72.2335 7.08081C84.5627 14.6366 92.1511 25.5315 94.8149 39.7839C95.1478 41.5675 95.3131 43.3837 95.5553 45.1836C95.5553 47.0417 95.5553 48.9021 95.5553 50.7602C95.4971 51.0885 95.4319 51.4168 95.383 51.7475C95.085 53.7965 94.915 55.8735 94.4772 57.8923C91.9928 69.3226 86.1227 78.6876 76.8136 85.7405C65.2319 94.5141 52.1902 97.4224 37.9681 94.4582C26.5843 92.0856 17.331 86.1177 10.2502 76.9157C2.60821 66.9779 -0.570124 55.6616 0.624371 43.209C1.59301 33.1175 5.51179 24.2089 12.234 16.6018C19.6059 8.26599 28.787 3.07121 39.7633 1.11764C41.5539 0.798647 43.3701 0.621685 45.1746 0.377197ZM36.0657 47.9055C36.0657 53.6684 36.0657 59.429 36.068 65.1919C36.068 65.5319 36.0494 65.8812 36.1193 66.2095C36.4476 67.7416 37.982 68.2166 39.5002 67.241C48.4857 61.4711 57.4688 55.6965 66.4497 49.9173C68.2868 48.7345 68.2659 47.193 66.4054 45.9962C57.4758 40.2519 48.5416 34.5169 39.6143 28.7703C38.8179 28.2581 38.0239 27.9065 37.1065 28.4071C36.1915 28.91 36.0564 29.7622 36.0587 30.7146C36.0727 36.4426 36.0657 42.1752 36.0657 47.9055Z" fill="white"/>
</svg>
